<?xml version="1.0" encoding="UTF-8"?>
<!DOCTYPE svg PUBLIC "-//W3C//DTD SVG 1.1//EN" "http://www.w3.org/Graphics/SVG/1.1/DTD/svg11.dtd">
<!-- Creator: CorelDRAW (OEM Version) -->
<svg xmlns="http://www.w3.org/2000/svg" xml:space="preserve" width="58.1389mm" height="55.0013mm" version="1.1" style="shape-rendering:geometricPrecision; text-rendering:geometricPrecision; image-rendering:optimizeQuality; fill-rule:evenodd; clip-rule:evenodd"
viewBox="0 0 1495.98 1415.25"
 xmlns:xlink="http://www.w3.org/1999/xlink"
 xmlns:xodm="http://www.corel.com/coreldraw/odm/2003">
 <defs>
  <style type="text/css">
   <![CDATA[
    .fil0 {fill:#FEFEFE}
   ]]>
  </style>
 </defs>
 <g id="Layer_x0020_1">
  <metadata id="CorelCorpID_0Corel-Layer"/>
  <polygon class="fil0" points="478.93,218.37 697.3,182.34 697.3,922.25 478.93,1048.32 "/>
  <polygon class="fil0" points="478.93,218.37 697.3,192.13 697.3,922.24 478.93,1048.32 "/>
  <polygon class="fil0" points="478.93,218.37 697.3,0 936.43,0 958.03,218.37 "/>
  <polygon class="fil0" points="936.43,0 1154.8,218.37 1154.8,414.95 936.43,433.81 "/>
  <polygon class="fil0" points="697.3,414.95 1154.8,414.95 977.43,592.33 "/>
  <polygon class="fil0" points="1416.05,829.93 1338.07,1037.05 697.3,667.1 697.3,414.95 "/>
  <polygon class="fil0" points="1416.06,829.93 1329.59,1032.16 697.3,667.1 697.3,414.95 "/>
  <polygon class="fil0" points="1416.06,829.93 1495.98,1128.22 1376.42,1335.32 1176.51,1244.84 "/>
  <polygon class="fil0" points="1376.42,1335.32 1078.12,1415.25 907.87,1316.96 1000.72,1118.41 "/>
  <polygon class="fil0" points="1136.63,920.75 907.87,1316.96 842.95,1074.66 "/>
  <polygon class="fil0" points="417.87,1335.72 277.48,1164.63 918.26,794.67 1136.62,920.75 "/>
  <polygon class="fil0" points="417.87,1335.73 285.96,1159.73 918.26,794.68 1136.63,920.75 "/>
  <polygon class="fil0" points="417.87,1335.73 119.57,1255.8 -0,1048.7 178.31,920.81 "/>
  <polygon class="fil0" points="-0,1048.7 79.93,750.4 250.17,652.11 375.69,831.79 "/>
  <polygon class="fil0" points="478.93,1048.32 250.17,652.11 492.47,717.03 "/>
  <polygon class="fil0" points="478.93,713.41 697.3,667.1 697.3,922.25 478.93,1048.32 "/>
 </g>
</svg>
